<svg xmlns="http://www.w3.org/2000/svg" fill="currentColor" viewBox="0 0 12 20">
  <path d="M5.88 3.03c1.2 0 2.16.95 2.16 2.13S7.07 7.3 5.88 7.3c-1.2 0-2.17-.96-2.17-2.14 0-1.18.97-2.13 2.17-2.13Zm0 7.3a5.2 5.2 0 0 0 5.23-5.17A5.2 5.2 0 0 0 5.88 0 5.2 5.2 0 0 0 .63 5.16a5.2 5.2 0 0 0 5.24 5.16Zm2.11 4.2a9.95 9.95 0 0 0 3.04-1.24 1.5 1.5 0 0 0 .49-2.08 1.54 1.54 0 0 0-2.12-.48 6.73 6.73 0 0 1-7.05 0 1.54 1.54 0 0 0-2.12.48 1.5 1.5 0 0 0 .49 2.08c.94.59 1.97 1 3.04 1.24L.83 17.42a1.5 1.5 0 0 0 0 2.14 1.55 1.55 0 0 0 2.17 0l2.88-2.84 2.87 2.84c.6.59 1.57.59 2.17 0 .6-.6.6-1.55 0-2.14L8 14.53Z"/>
</svg>
