<?xml version="1.0" standalone="no"?>
<!DOCTYPE svg PUBLIC "-//W3C//DTD SVG 20010904//EN"
 "http://www.w3.org/TR/2001/REC-SVG-20010904/DTD/svg10.dtd">
<svg version="1.0" xmlns="http://www.w3.org/2000/svg"
 width="700.000000pt" height="700.000000pt" viewBox="0 0 700.000000 700.000000"
 preserveAspectRatio="xMidYMid meet">
<metadata>
Created by potrace 1.14, written by Peter Selinger 2001-2017
</metadata>
<g transform="translate(0.000000,700.000000) scale(0.100000,-0.100000)"
fill="#000000" stroke="none">
<path d="M3435 6993 c-36 -9 -85 -53 -107 -96 -21 -41 -21 -51 -22 -504 -1
-255 -4 -463 -8 -463 -5 0 -159 151 -344 336 -359 359 -380 375 -465 369 -87
-6 -172 -88 -182 -178 -9 -82 9 -103 520 -615 l478 -479 0 -761 c1 -419 0
-762 -2 -762 -2 0 -132 75 -290 167 -159 91 -306 176 -328 189 -22 12 -107 61
-190 109 -82 48 -170 99 -195 113 -25 13 -81 46 -125 72 -44 26 -106 61 -137
79 -32 18 -58 35 -58 37 0 4 -86 325 -305 1146 -42 154 -55 187 -89 221 -43
43 -77 56 -138 53 -73 -3 -140 -42 -168 -96 -35 -69 -32 -89 80 -505 12 -44
46 -172 75 -285 30 -113 59 -217 64 -232 5 -16 7 -28 5 -28 -5 0 -267 150
-589 338 -99 57 -197 111 -219 118 -100 36 -190 -7 -237 -111 -33 -71 -19
-145 38 -204 22 -23 445 -273 746 -441 57 -32 62 -46 21 -54 -10 -3 -104 -28
-209 -56 -104 -28 -257 -69 -340 -91 -323 -86 -362 -99 -396 -133 -59 -57 -73
-124 -44 -207 29 -82 87 -122 175 -121 35 0 151 26 320 72 284 76 468 126 620
166 52 14 98 27 101 29 3 2 19 7 35 10 16 3 63 14 104 26 137 38 163 42 180
31 9 -5 295 -170 636 -367 340 -196 630 -364 642 -372 l24 -15 -34 -18 c-18
-10 -132 -75 -253 -145 -121 -70 -233 -135 -250 -145 -80 -45 -352 -203 -365
-211 -45 -27 -367 -212 -391 -225 -37 -18 3 -27 -529 116 -206 56 -433 117
-505 136 -71 19 -164 44 -205 55 -41 11 -91 22 -110 24 -85 9 -167 -42 -194
-122 -28 -82 -18 -143 32 -196 48 -51 21 -42 677 -217 268 -71 305 -83 305
-93 1 -7 -136 -88 -400 -239 -417 -238 -436 -253 -447 -347 -12 -100 68 -205
165 -218 58 -8 95 8 305 129 105 61 208 120 231 133 23 13 111 64 196 113 85
50 156 86 158 81 2 -5 -10 -57 -26 -116 -16 -60 -46 -171 -67 -248 -21 -77
-60 -221 -87 -320 -62 -226 -69 -293 -36 -355 45 -82 170 -121 256 -79 81 40
80 36 302 874 16 61 55 206 87 323 l58 213 210 121 c116 67 264 152 330 191
66 38 138 79 160 92 22 12 94 54 160 92 175 102 455 263 458 263 1 0 2 -343 2
-763 l0 -762 -477 -476 c-310 -310 -484 -491 -498 -519 -44 -87 -18 -179 68
-241 54 -39 119 -46 179 -19 27 12 149 126 382 359 187 187 342 340 342 338 1
-1 2 -211 3 -467 l2 -465 24 -45 c30 -54 77 -87 136 -96 90 -13 162 20 204 96
l24 45 1 468 c0 257 1 467 3 467 1 0 147 -145 325 -323 177 -177 339 -335 359
-350 83 -64 175 -57 249 18 70 71 81 150 32 229 -15 22 -238 253 -497 512
l-471 470 0 762 c0 419 1 762 3 762 4 0 390 -223 471 -272 34 -21 64 -38 66
-38 1 0 128 -72 281 -161 154 -89 330 -190 392 -226 61 -35 112 -67 112 -69 0
-3 45 -175 101 -382 56 -207 112 -420 126 -472 13 -52 33 -126 44 -164 12 -38
22 -78 25 -89 14 -73 59 -208 81 -239 27 -40 93 -78 134 -78 48 0 131 31 159
60 15 16 33 45 40 65 21 62 11 116 -84 460 -8 28 -24 86 -35 130 -12 44 -41
154 -66 245 -25 91 -45 171 -45 178 0 10 9 8 33 -6 17 -11 50 -30 72 -42 22
-12 69 -39 105 -60 36 -21 81 -47 100 -58 19 -11 132 -76 250 -144 118 -68
230 -130 249 -136 81 -28 160 -1 212 74 30 43 34 57 34 115 0 61 -3 69 -37
110 -25 31 -75 66 -168 119 -72 41 -145 83 -163 94 -211 123 -438 253 -460
264 -30 15 -26 29 9 36 10 3 138 37 284 76 146 39 333 89 415 111 184 49 217
62 260 110 65 72 57 197 -17 266 -35 33 -104 54 -152 47 -23 -3 -198 -48 -391
-100 -353 -95 -691 -185 -842 -225 l-82 -22 -473 273 c-260 150 -555 321 -656
379 -100 58 -181 109 -179 114 1 5 28 23 60 40 31 18 144 82 250 143 105 62
293 170 417 242 124 71 306 177 406 234 133 77 185 103 200 97 25 -9 49 -16
349 -95 138 -37 306 -82 375 -101 69 -19 132 -36 140 -38 8 -2 103 -27 210
-56 207 -55 275 -63 327 -36 90 47 128 169 82 264 -36 74 -61 84 -529 207
-343 91 -490 131 -490 136 0 3 12 12 28 21 15 8 115 67 222 129 107 62 209
121 225 130 126 71 286 166 313 187 41 31 72 91 72 141 0 51 -44 136 -88 170
-31 23 -45 27 -101 26 -54 0 -75 -6 -116 -29 -27 -15 -147 -84 -265 -153 -118
-68 -240 -138 -270 -155 -30 -17 -91 -52 -135 -78 -44 -26 -81 -43 -83 -38 -2
4 6 41 17 81 11 40 29 107 40 148 202 754 189 698 177 766 -19 107 -165 175
-269 125 -77 -37 -90 -67 -181 -408 -46 -169 -116 -429 -156 -578 -40 -148
-82 -305 -92 -347 l-20 -77 -91 -53 c-50 -29 -96 -55 -102 -57 -5 -2 -21 -12
-35 -21 -14 -9 -47 -30 -75 -45 -47 -26 -474 -271 -542 -311 -30 -19 -138 -81
-198 -114 -16 -10 -70 -41 -120 -70 -147 -86 -154 -90 -158 -82 -2 4 -3 347
-3 762 l1 755 477 476 c311 311 484 491 498 519 25 50 28 115 7 157 -24 46
-88 103 -130 114 -50 13 -103 4 -150 -27 -21 -14 -186 -173 -367 -354 -182
-182 -331 -330 -333 -330 -1 0 -2 204 -2 453 0 391 -2 458 -16 500 -18 53 -51
94 -89 109 -30 12 -127 19 -155 11z"/>
</g>
</svg>
