<svg xmlns="http://www.w3.org/2000/svg" fill="currentColor" viewBox="0 0 20 20">
  <path d="M19.56 9.56a.44.44 0 0 0 .44-.48A10.03 10.03 0 0 0 10.92 0a.44.44 0 0 0-.48.44c.08 6.4.93 9.03 9.12 9.12Zm0 .88c-8.2.1-9.04 2.71-9.11 9.12a.44.44 0 0 0 .47.44A10.03 10.03 0 0 0 20 10.92a.44.44 0 0 0-.44-.48ZM9.05 0C4.25.46.44 4.27 0 9.08a.44.44 0 0 0 .44.48c8.17-.1 9.01-2.71 9.09-9.12A.44.44 0 0 0 9.05 0ZM.45 10.44a.4.4 0 0 0-.33.14.44.44 0 0 0-.12.34A10.03 10.03 0 0 0 9.1 20a.44.44 0 0 0 .43-.44c-.08-6.4-.92-9.02-9.09-9.12Z"/>
</svg>
