<svg xmlns="http://www.w3.org/2000/svg" fill="currentColor" viewBox="0 0 44 32">
  <path d="m41.44 25.72-39.8-8.5c-.3-.07-.5.56-.35 1.06C3.84 26.33 9.86 32 16.87 32H40.6c.16 0 .3-.2.35-.5l.8-4.88c.07-.42-.08-.85-.31-.9Zm2.44-13.95c-.11-.34-.3-.57-.52-.63l-11-2.78c-.4-.1-.77.43-.82 1.2-.05.76.23 1.46.63 1.56l1.24.31c.19.05.32.34.32.7v2.14c0 .42-.19.74-.4.7l-2.94-.6c-.18-.04-.32-.34-.32-.7V7.6c0-.14.02-.27.06-.39l1.28-3.65a2.5 2.5 0 0 0 .04-1.4c-.12-.44-.35-.73-.62-.76L15.43 0c-.24 0-.48.2-.63.58l-3.57 9.54c-.08.2-.2.31-.34.28L.81 8.36c-.2-.05-.41.08-.57.34C.1 8.97 0 9.34 0 9.74c0 1.34.1 2.65.27 3.93.03.28.16.48.31.52l41.43 8.85c.18.04.35-.16.4-.48l1.56-9.63a2.5 2.5 0 0 0-.09-1.16Zm-22.72-7.7-.57 7.6c-.03.36-.2.63-.4.59l-6.8-1.35c-.28-.06-.42-.66-.26-1.1l2.52-6.69c.07-.19.19-.3.31-.29l4.86.44c.21.02.37.39.34.8Zm7.95 1-.45 1.29c-.04.11-.06.25-.06.38v6.5c0 .4-.19.73-.4.68l-5.83-1.18c-.2-.04-.35-.4-.32-.8l.6-7.87c.02-.35.18-.61.37-.6l5.8.53c.29.02.45.63.3 1.08Zm9.02 10.1c0 .41-.19.73-.4.69l-2.2-.48c-.2-.04-.33-.34-.33-.69v-2.01c0-.42.2-.75.41-.7l2.2.56c.19.05.32.35.32.7v1.93Zm4.05-.7-.27 1.67c-.05.32-.21.53-.39.5l-1.6-.33c-.18-.04-.32-.34-.32-.7V13.8c0-.42.2-.74.41-.69l1.87.47c.23.06.37.49.3.9Z"/>
</svg>
