<svg xmlns="http://www.w3.org/2000/svg" fill="currentColor" viewBox="0 0 20 20"><path d="M11.95 0c-.65 0-1.25.33-1.63.8-.39.46-.6 1.04-.76 1.64-.24.97-.32 2.04-.34 3.01-1.8.12-3.43.66-4.79 1.48a2.88 2.88 0 0 0-1.85-.71c-.72 0-1.4.32-1.92.96a3.49 3.49 0 0 0 .27 4.4 6 6 0 0 0-.12 1.13C.8 16.74 4.92 20 10 20c5.08 0 9.2-3.26 9.2-7.29a6 6 0 0 0-.13-1.12 3.49 3.49 0 0 0 .27-4.41 2.44 2.44 0 0 0-1.92-.96c-.64 0-1.3.25-1.85.71a10.53 10.53 0 0 0-4.77-1.48c.03-.9.1-1.82.27-2.52.11-.44.25-.76.39-.93.14-.17.25-.25.49-.25.52 0 .58.17.9.58.15.2.34.46.63.71.29.25.72.47 1.19.47V1.75c-.13 0-.16 0-.24-.08-.1-.08-.21-.26-.4-.5C13.69.72 12.99 0 11.96 0ZM17 .16c-1.2 0-2.19 1.1-2.19 2.47 0 1.36.98 2.47 2.2 2.47 1.2 0 2.18-1.1 2.18-2.47 0-1.36-.98-2.47-2.19-2.47Zm0 .88c.78 0 1.41.71 1.41 1.59 0 .88-.63 1.59-1.4 1.59-.79 0-1.42-.71-1.42-1.59 0-.88.64-1.59 1.41-1.59Zm-7 5.78c4.3 0 7.95 2.7 7.95 5.9 0 3.18-3.64 5.88-7.95 5.88-4.3 0-7.95-2.7-7.95-5.89 0-3.19 3.64-5.89 7.95-5.89Zm-7.4.8c.22 0 .45.05.66.16a7.18 7.18 0 0 0-1.82 2.3c-.3-.68-.21-1.52.15-1.97.26-.33.62-.5 1.02-.5Zm14.8 0c.39 0 .75.16 1.01.49.36.45.44 1.3.15 1.97a7.18 7.18 0 0 0-1.82-2.3c.21-.1.44-.16.65-.16ZM6.88 9.8c-.78 0-1.41.71-1.41 1.59 0 .87.63 1.59 1.4 1.59.79 0 1.42-.72 1.42-1.6 0-.87-.63-1.58-1.41-1.58Zm6.22 0c-.78 0-1.4.71-1.4 1.59 0 .87.62 1.59 1.4 1.59.78 0 1.41-.72 1.41-1.6 0-.87-.63-1.58-1.4-1.58Zm-6.98 5.4c.5 1.15 2.03 2.27 3.87 2.27 1.84 0 3.4-1.12 3.9-2.27-.9.65-2.33 1.1-3.9 1.1a6.73 6.73 0 0 1-3.87-1.1Z"/></svg>